<?xml version="1.0" encoding="utf-8" standalone="no"?>
<!DOCTYPE svg PUBLIC "-//W3C//DTD SVG 1.1//EN"
  "http://www.w3.org/Graphics/SVG/1.1/DTD/svg11.dtd">
<svg xmlns:xlink="http://www.w3.org/1999/xlink" width="460.8pt" height="345.6pt" viewBox="0 0 460.8 345.6" xmlns="http://www.w3.org/2000/svg" version="1.1">
 <metadata>
  <rdf:RDF xmlns:dc="http://purl.org/dc/elements/1.1/" xmlns:cc="http://creativecommons.org/ns#" xmlns:rdf="http://www.w3.org/1999/02/22-rdf-syntax-ns#">
   <cc:Work>
    <dc:type rdf:resource="http://purl.org/dc/dcmitype/StillImage"/>
    <dc:date>2023-10-25T21:52:07.756160</dc:date>
    <dc:format>image/svg+xml</dc:format>
    <dc:creator>
     <cc:Agent>
      <dc:title>Matplotlib v3.8.0, https://matplotlib.org/</dc:title>
     </cc:Agent>
    </dc:creator>
   </cc:Work>
  </rdf:RDF>
 </metadata>
 <defs>
  <style type="text/css">*{stroke-linejoin: round; stroke-linecap: butt}</style>
 </defs>
 <g id="figure_1">
  <g id="patch_1">
   <path d="M 0 345.6 
L 460.8 345.6 
L 460.8 0 
L 0 0 
z
" style="fill: #ffffff"/>
  </g>
  <g id="axes_1">
   <g id="patch_2">
    <path d="M 57.6 307.584 
L 414.72 307.584 
L 414.72 41.472 
L 57.6 41.472 
z
" style="fill: #ffffff"/>
   </g>
   <g id="matplotlib.axis_1">
    <g id="xtick_1">
     <g id="line2d_1">
      <path d="M 57.6 307.584 
L 57.6 41.472 
" clip-path="url(#p5bda17ce3b)" style="fill: none; stroke: #808080; stroke-width: 0.8; stroke-linecap: square"/>
     </g>
     <g id="line2d_2">
      <defs>
       <path id="m214b563571" d="M 0 0 
L 0 3.5 
" style="stroke: #000000; stroke-width: 0.8"/>
      </defs>
      <g>
       <use xlink:href="#m214b563571" x="57.6" y="307.584" style="stroke: #000000; stroke-width: 0.8"/>
      </g>
     </g>
     <g id="text_1">
      <!-- 0 -->
      <g transform="translate(54.41875 322.182437) scale(0.1 -0.1)">
       <defs>
        <path id="DejaVuSans-30" d="M 2034 4250 
Q 1547 4250 1301 3770 
Q 1056 3291 1056 2328 
Q 1056 1369 1301 889 
Q 1547 409 2034 409 
Q 2525 409 2770 889 
Q 3016 1369 3016 2328 
Q 3016 3291 2770 3770 
Q 2525 4250 2034 4250 
z
M 2034 4750 
Q 2819 4750 3233 4129 
Q 3647 3509 3647 2328 
Q 3647 1150 3233 529 
Q 2819 -91 2034 -91 
Q 1250 -91 836 529 
Q 422 1150 422 2328 
Q 422 3509 836 4129 
Q 1250 4750 2034 4750 
z
" transform="scale(0.015625)"/>
       </defs>
       <use xlink:href="#DejaVuSans-30"/>
      </g>
     </g>
    </g>
    <g id="xtick_2">
     <g id="line2d_3">
      <path d="M 103.979221 307.584 
L 103.979221 41.472 
" clip-path="url(#p5bda17ce3b)" style="fill: none; stroke: #808080; stroke-width: 0.8; stroke-linecap: square"/>
     </g>
     <g id="line2d_4">
      <g>
       <use xlink:href="#m214b563571" x="103.979221" y="307.584" style="stroke: #000000; stroke-width: 0.8"/>
      </g>
     </g>
     <g id="text_2">
      <!-- 2 -->
      <g transform="translate(100.797971 322.182437) scale(0.1 -0.1)">
       <defs>
        <path id="DejaVuSans-32" d="M 1228 531 
L 3431 531 
L 3431 0 
L 469 0 
L 469 531 
Q 828 903 1448 1529 
Q 2069 2156 2228 2338 
Q 2531 2678 2651 2914 
Q 2772 3150 2772 3378 
Q 2772 3750 2511 3984 
Q 2250 4219 1831 4219 
Q 1534 4219 1204 4116 
Q 875 4013 500 3803 
L 500 4441 
Q 881 4594 1212 4672 
Q 1544 4750 1819 4750 
Q 2544 4750 2975 4387 
Q 3406 4025 3406 3419 
Q 3406 3131 3298 2873 
Q 3191 2616 2906 2266 
Q 2828 2175 2409 1742 
Q 1991 1309 1228 531 
z
" transform="scale(0.015625)"/>
       </defs>
       <use xlink:href="#DejaVuSans-32"/>
      </g>
     </g>
    </g>
    <g id="xtick_3">
     <g id="line2d_5">
      <path d="M 150.358442 307.584 
L 150.358442 41.472 
" clip-path="url(#p5bda17ce3b)" style="fill: none; stroke: #808080; stroke-width: 0.8; stroke-linecap: square"/>
     </g>
     <g id="line2d_6">
      <g>
       <use xlink:href="#m214b563571" x="150.358442" y="307.584" style="stroke: #000000; stroke-width: 0.8"/>
      </g>
     </g>
     <g id="text_3">
      <!-- 4 -->
      <g transform="translate(147.177192 322.182437) scale(0.1 -0.1)">
       <defs>
        <path id="DejaVuSans-34" d="M 2419 4116 
L 825 1625 
L 2419 1625 
L 2419 4116 
z
M 2253 4666 
L 3047 4666 
L 3047 1625 
L 3713 1625 
L 3713 1100 
L 3047 1100 
L 3047 0 
L 2419 0 
L 2419 1100 
L 313 1100 
L 313 1709 
L 2253 4666 
z
" transform="scale(0.015625)"/>
       </defs>
       <use xlink:href="#DejaVuSans-34"/>
      </g>
     </g>
    </g>
    <g id="xtick_4">
     <g id="line2d_7">
      <path d="M 196.737662 307.584 
L 196.737662 41.472 
" clip-path="url(#p5bda17ce3b)" style="fill: none; stroke: #808080; stroke-width: 0.8; stroke-linecap: square"/>
     </g>
     <g id="line2d_8">
      <g>
       <use xlink:href="#m214b563571" x="196.737662" y="307.584" style="stroke: #000000; stroke-width: 0.8"/>
      </g>
     </g>
     <g id="text_4">
      <!-- 6 -->
      <g transform="translate(193.556412 322.182437) scale(0.1 -0.1)">
       <defs>
        <path id="DejaVuSans-36" d="M 2113 2584 
Q 1688 2584 1439 2293 
Q 1191 2003 1191 1497 
Q 1191 994 1439 701 
Q 1688 409 2113 409 
Q 2538 409 2786 701 
Q 3034 994 3034 1497 
Q 3034 2003 2786 2293 
Q 2538 2584 2113 2584 
z
M 3366 4563 
L 3366 3988 
Q 3128 4100 2886 4159 
Q 2644 4219 2406 4219 
Q 1781 4219 1451 3797 
Q 1122 3375 1075 2522 
Q 1259 2794 1537 2939 
Q 1816 3084 2150 3084 
Q 2853 3084 3261 2657 
Q 3669 2231 3669 1497 
Q 3669 778 3244 343 
Q 2819 -91 2113 -91 
Q 1303 -91 875 529 
Q 447 1150 447 2328 
Q 447 3434 972 4092 
Q 1497 4750 2381 4750 
Q 2619 4750 2861 4703 
Q 3103 4656 3366 4563 
z
" transform="scale(0.015625)"/>
       </defs>
       <use xlink:href="#DejaVuSans-36"/>
      </g>
     </g>
    </g>
    <g id="xtick_5">
     <g id="line2d_9">
      <path d="M 243.116883 307.584 
L 243.116883 41.472 
" clip-path="url(#p5bda17ce3b)" style="fill: none; stroke: #808080; stroke-width: 0.8; stroke-linecap: square"/>
     </g>
     <g id="line2d_10">
      <g>
       <use xlink:href="#m214b563571" x="243.116883" y="307.584" style="stroke: #000000; stroke-width: 0.8"/>
      </g>
     </g>
     <g id="text_5">
      <!-- 8 -->
      <g transform="translate(239.935633 322.182437) scale(0.1 -0.1)">
       <defs>
        <path id="DejaVuSans-38" d="M 2034 2216 
Q 1584 2216 1326 1975 
Q 1069 1734 1069 1313 
Q 1069 891 1326 650 
Q 1584 409 2034 409 
Q 2484 409 2743 651 
Q 3003 894 3003 1313 
Q 3003 1734 2745 1975 
Q 2488 2216 2034 2216 
z
M 1403 2484 
Q 997 2584 770 2862 
Q 544 3141 544 3541 
Q 544 4100 942 4425 
Q 1341 4750 2034 4750 
Q 2731 4750 3128 4425 
Q 3525 4100 3525 3541 
Q 3525 3141 3298 2862 
Q 3072 2584 2669 2484 
Q 3125 2378 3379 2068 
Q 3634 1759 3634 1313 
Q 3634 634 3220 271 
Q 2806 -91 2034 -91 
Q 1263 -91 848 271 
Q 434 634 434 1313 
Q 434 1759 690 2068 
Q 947 2378 1403 2484 
z
M 1172 3481 
Q 1172 3119 1398 2916 
Q 1625 2713 2034 2713 
Q 2441 2713 2670 2916 
Q 2900 3119 2900 3481 
Q 2900 3844 2670 4047 
Q 2441 4250 2034 4250 
Q 1625 4250 1398 4047 
Q 1172 3844 1172 3481 
z
" transform="scale(0.015625)"/>
       </defs>
       <use xlink:href="#DejaVuSans-38"/>
      </g>
     </g>
    </g>
    <g id="xtick_6">
     <g id="line2d_11">
      <path d="M 289.496104 307.584 
L 289.496104 41.472 
" clip-path="url(#p5bda17ce3b)" style="fill: none; stroke: #808080; stroke-width: 0.8; stroke-linecap: square"/>
     </g>
     <g id="line2d_12">
      <g>
       <use xlink:href="#m214b563571" x="289.496104" y="307.584" style="stroke: #000000; stroke-width: 0.8"/>
      </g>
     </g>
     <g id="text_6">
      <!-- 10 -->
      <g transform="translate(283.133604 322.182437) scale(0.1 -0.1)">
       <defs>
        <path id="DejaVuSans-31" d="M 794 531 
L 1825 531 
L 1825 4091 
L 703 3866 
L 703 4441 
L 1819 4666 
L 2450 4666 
L 2450 531 
L 3481 531 
L 3481 0 
L 794 0 
L 794 531 
z
" transform="scale(0.015625)"/>
       </defs>
       <use xlink:href="#DejaVuSans-31"/>
       <use xlink:href="#DejaVuSans-30" x="63.623047"/>
      </g>
     </g>
    </g>
    <g id="xtick_7">
     <g id="line2d_13">
      <path d="M 335.875325 307.584 
L 335.875325 41.472 
" clip-path="url(#p5bda17ce3b)" style="fill: none; stroke: #808080; stroke-width: 0.8; stroke-linecap: square"/>
     </g>
     <g id="line2d_14">
      <g>
       <use xlink:href="#m214b563571" x="335.875325" y="307.584" style="stroke: #000000; stroke-width: 0.8"/>
      </g>
     </g>
     <g id="text_7">
      <!-- 12 -->
      <g transform="translate(329.512825 322.182437) scale(0.1 -0.1)">
       <use xlink:href="#DejaVuSans-31"/>
       <use xlink:href="#DejaVuSans-32" x="63.623047"/>
      </g>
     </g>
    </g>
    <g id="xtick_8">
     <g id="line2d_15">
      <path d="M 382.254545 307.584 
L 382.254545 41.472 
" clip-path="url(#p5bda17ce3b)" style="fill: none; stroke: #808080; stroke-width: 0.8; stroke-linecap: square"/>
     </g>
     <g id="line2d_16">
      <g>
       <use xlink:href="#m214b563571" x="382.254545" y="307.584" style="stroke: #000000; stroke-width: 0.8"/>
      </g>
     </g>
     <g id="text_8">
      <!-- 14 -->
      <g transform="translate(375.892045 322.182437) scale(0.1 -0.1)">
       <use xlink:href="#DejaVuSans-31"/>
       <use xlink:href="#DejaVuSans-34" x="63.623047"/>
      </g>
     </g>
    </g>
    <g id="xtick_9">
     <g id="line2d_17">
      <defs>
       <path id="mfa3d6a2e87" d="M 0 0 
L 0 2 
" style="stroke: #000000; stroke-width: 0.6"/>
      </defs>
      <g>
       <use xlink:href="#mfa3d6a2e87" x="69.194805" y="307.584" style="stroke: #000000; stroke-width: 0.6"/>
      </g>
     </g>
    </g>
    <g id="xtick_10">
     <g id="line2d_18">
      <g>
       <use xlink:href="#mfa3d6a2e87" x="80.78961" y="307.584" style="stroke: #000000; stroke-width: 0.6"/>
      </g>
     </g>
    </g>
    <g id="xtick_11">
     <g id="line2d_19">
      <g>
       <use xlink:href="#mfa3d6a2e87" x="92.384416" y="307.584" style="stroke: #000000; stroke-width: 0.6"/>
      </g>
     </g>
    </g>
    <g id="xtick_12">
     <g id="line2d_20">
      <g>
       <use xlink:href="#mfa3d6a2e87" x="115.574026" y="307.584" style="stroke: #000000; stroke-width: 0.6"/>
      </g>
     </g>
    </g>
    <g id="xtick_13">
     <g id="line2d_21">
      <g>
       <use xlink:href="#mfa3d6a2e87" x="127.168831" y="307.584" style="stroke: #000000; stroke-width: 0.6"/>
      </g>
     </g>
    </g>
    <g id="xtick_14">
     <g id="line2d_22">
      <g>
       <use xlink:href="#mfa3d6a2e87" x="138.763636" y="307.584" style="stroke: #000000; stroke-width: 0.6"/>
      </g>
     </g>
    </g>
    <g id="xtick_15">
     <g id="line2d_23">
      <g>
       <use xlink:href="#mfa3d6a2e87" x="161.953247" y="307.584" style="stroke: #000000; stroke-width: 0.6"/>
      </g>
     </g>
    </g>
    <g id="xtick_16">
     <g id="line2d_24">
      <g>
       <use xlink:href="#mfa3d6a2e87" x="173.548052" y="307.584" style="stroke: #000000; stroke-width: 0.6"/>
      </g>
     </g>
    </g>
    <g id="xtick_17">
     <g id="line2d_25">
      <g>
       <use xlink:href="#mfa3d6a2e87" x="185.142857" y="307.584" style="stroke: #000000; stroke-width: 0.6"/>
      </g>
     </g>
    </g>
    <g id="xtick_18">
     <g id="line2d_26">
      <g>
       <use xlink:href="#mfa3d6a2e87" x="208.332468" y="307.584" style="stroke: #000000; stroke-width: 0.6"/>
      </g>
     </g>
    </g>
    <g id="xtick_19">
     <g id="line2d_27">
      <g>
       <use xlink:href="#mfa3d6a2e87" x="219.927273" y="307.584" style="stroke: #000000; stroke-width: 0.6"/>
      </g>
     </g>
    </g>
    <g id="xtick_20">
     <g id="line2d_28">
      <g>
       <use xlink:href="#mfa3d6a2e87" x="231.522078" y="307.584" style="stroke: #000000; stroke-width: 0.6"/>
      </g>
     </g>
    </g>
    <g id="xtick_21">
     <g id="line2d_29">
      <g>
       <use xlink:href="#mfa3d6a2e87" x="254.711688" y="307.584" style="stroke: #000000; stroke-width: 0.6"/>
      </g>
     </g>
    </g>
    <g id="xtick_22">
     <g id="line2d_30">
      <g>
       <use xlink:href="#mfa3d6a2e87" x="266.306494" y="307.584" style="stroke: #000000; stroke-width: 0.6"/>
      </g>
     </g>
    </g>
    <g id="xtick_23">
     <g id="line2d_31">
      <g>
       <use xlink:href="#mfa3d6a2e87" x="277.901299" y="307.584" style="stroke: #000000; stroke-width: 0.6"/>
      </g>
     </g>
    </g>
    <g id="xtick_24">
     <g id="line2d_32">
      <g>
       <use xlink:href="#mfa3d6a2e87" x="301.090909" y="307.584" style="stroke: #000000; stroke-width: 0.6"/>
      </g>
     </g>
    </g>
    <g id="xtick_25">
     <g id="line2d_33">
      <g>
       <use xlink:href="#mfa3d6a2e87" x="312.685714" y="307.584" style="stroke: #000000; stroke-width: 0.6"/>
      </g>
     </g>
    </g>
    <g id="xtick_26">
     <g id="line2d_34">
      <g>
       <use xlink:href="#mfa3d6a2e87" x="324.280519" y="307.584" style="stroke: #000000; stroke-width: 0.6"/>
      </g>
     </g>
    </g>
    <g id="xtick_27">
     <g id="line2d_35">
      <g>
       <use xlink:href="#mfa3d6a2e87" x="347.47013" y="307.584" style="stroke: #000000; stroke-width: 0.6"/>
      </g>
     </g>
    </g>
    <g id="xtick_28">
     <g id="line2d_36">
      <g>
       <use xlink:href="#mfa3d6a2e87" x="359.064935" y="307.584" style="stroke: #000000; stroke-width: 0.6"/>
      </g>
     </g>
    </g>
    <g id="xtick_29">
     <g id="line2d_37">
      <g>
       <use xlink:href="#mfa3d6a2e87" x="370.65974" y="307.584" style="stroke: #000000; stroke-width: 0.6"/>
      </g>
     </g>
    </g>
    <g id="xtick_30">
     <g id="line2d_38">
      <g>
       <use xlink:href="#mfa3d6a2e87" x="393.849351" y="307.584" style="stroke: #000000; stroke-width: 0.6"/>
      </g>
     </g>
    </g>
    <g id="xtick_31">
     <g id="line2d_39">
      <g>
       <use xlink:href="#mfa3d6a2e87" x="405.444156" y="307.584" style="stroke: #000000; stroke-width: 0.6"/>
      </g>
     </g>
    </g>
    <g id="text_9">
     <!-- Время, с -->
     <g transform="translate(213.771719 335.860562) scale(0.1 -0.1)">
      <defs>
       <path id="DejaVuSans-412" d="M 1259 2228 
L 1259 519 
L 2272 519 
Q 2781 519 3026 730 
Q 3272 941 3272 1375 
Q 3272 1813 3026 2020 
Q 2781 2228 2272 2228 
L 1259 2228 
z
M 1259 4147 
L 1259 2741 
L 2194 2741 
Q 2656 2741 2882 2914 
Q 3109 3088 3109 3444 
Q 3109 3797 2882 3972 
Q 2656 4147 2194 4147 
L 1259 4147 
z
M 628 4666 
L 2241 4666 
Q 2963 4666 3353 4366 
Q 3744 4066 3744 3513 
Q 3744 3084 3544 2831 
Q 3344 2578 2956 2516 
Q 3422 2416 3680 2098 
Q 3938 1781 3938 1306 
Q 3938 681 3513 340 
Q 3088 0 2303 0 
L 628 0 
L 628 4666 
z
" transform="scale(0.015625)"/>
       <path id="DejaVuSans-440" d="M 1159 525 
L 1159 -1331 
L 581 -1331 
L 581 3500 
L 1159 3500 
L 1159 2969 
Q 1341 3281 1617 3432 
Q 1894 3584 2278 3584 
Q 2916 3584 3314 3078 
Q 3713 2572 3713 1747 
Q 3713 922 3314 415 
Q 2916 -91 2278 -91 
Q 1894 -91 1617 61 
Q 1341 213 1159 525 
z
M 3116 1747 
Q 3116 2381 2855 2742 
Q 2594 3103 2138 3103 
Q 1681 3103 1420 2742 
Q 1159 2381 1159 1747 
Q 1159 1113 1420 752 
Q 1681 391 2138 391 
Q 2594 391 2855 752 
Q 3116 1113 3116 1747 
z
" transform="scale(0.015625)"/>
       <path id="DejaVuSans-435" d="M 3597 1894 
L 3597 1613 
L 953 1613 
Q 991 1019 1311 708 
Q 1631 397 2203 397 
Q 2534 397 2845 478 
Q 3156 559 3463 722 
L 3463 178 
Q 3153 47 2828 -22 
Q 2503 -91 2169 -91 
Q 1331 -91 842 396 
Q 353 884 353 1716 
Q 353 2575 817 3079 
Q 1281 3584 2069 3584 
Q 2775 3584 3186 3129 
Q 3597 2675 3597 1894 
z
M 3022 2063 
Q 3016 2534 2758 2815 
Q 2500 3097 2075 3097 
Q 1594 3097 1305 2825 
Q 1016 2553 972 2059 
L 3022 2063 
z
" transform="scale(0.015625)"/>
       <path id="DejaVuSans-43c" d="M 581 3500 
L 1422 3500 
L 2416 1156 
L 3413 3500 
L 4247 3500 
L 4247 0 
L 3669 0 
L 3669 2950 
L 2703 672 
L 2128 672 
L 1159 2950 
L 1159 0 
L 581 0 
L 581 3500 
z
" transform="scale(0.015625)"/>
       <path id="DejaVuSans-44f" d="M 1181 2491 
Q 1181 2231 1381 2084 
Q 1581 1938 1953 1938 
L 2728 1938 
L 2728 3041 
L 1953 3041 
Q 1581 3041 1381 2897 
Q 1181 2753 1181 2491 
z
M 363 0 
L 1431 1534 
Q 1069 1616 828 1830 
Q 588 2044 588 2491 
Q 588 2997 923 3248 
Q 1259 3500 1938 3500 
L 3306 3500 
L 3306 0 
L 2728 0 
L 2728 1478 
L 2013 1478 
L 981 0 
L 363 0 
z
" transform="scale(0.015625)"/>
       <path id="DejaVuSans-2c" d="M 750 794 
L 1409 794 
L 1409 256 
L 897 -744 
L 494 -744 
L 750 256 
L 750 794 
z
" transform="scale(0.015625)"/>
       <path id="DejaVuSans-20" transform="scale(0.015625)"/>
       <path id="DejaVuSans-441" d="M 3122 3366 
L 3122 2828 
Q 2878 2963 2633 3030 
Q 2388 3097 2138 3097 
Q 1578 3097 1268 2742 
Q 959 2388 959 1747 
Q 959 1106 1268 751 
Q 1578 397 2138 397 
Q 2388 397 2633 464 
Q 2878 531 3122 666 
L 3122 134 
Q 2881 22 2623 -34 
Q 2366 -91 2075 -91 
Q 1284 -91 818 406 
Q 353 903 353 1747 
Q 353 2603 823 3093 
Q 1294 3584 2113 3584 
Q 2378 3584 2631 3529 
Q 2884 3475 3122 3366 
z
" transform="scale(0.015625)"/>
      </defs>
      <use xlink:href="#DejaVuSans-412"/>
      <use xlink:href="#DejaVuSans-440" x="68.603516"/>
      <use xlink:href="#DejaVuSans-435" x="132.080078"/>
      <use xlink:href="#DejaVuSans-43c" x="193.603516"/>
      <use xlink:href="#DejaVuSans-44f" x="269.042969"/>
      <use xlink:href="#DejaVuSans-2c" x="329.199219"/>
      <use xlink:href="#DejaVuSans-20" x="360.986328"/>
      <use xlink:href="#DejaVuSans-441" x="392.773438"/>
     </g>
    </g>
   </g>
   <g id="matplotlib.axis_2">
    <g id="ytick_1">
     <g id="line2d_40">
      <path d="M 57.6 266.994865 
L 414.72 266.994865 
" clip-path="url(#p5bda17ce3b)" style="fill: none; stroke: #808080; stroke-width: 0.8; stroke-linecap: square"/>
     </g>
     <g id="line2d_41">
      <defs>
       <path id="m0eb1e447f0" d="M 0 0 
L -3.5 0 
" style="stroke: #000000; stroke-width: 0.8"/>
      </defs>
      <g>
       <use xlink:href="#m0eb1e447f0" x="57.6" y="266.994865" style="stroke: #000000; stroke-width: 0.8"/>
      </g>
     </g>
     <g id="text_10">
      <!-- 0.5 -->
      <g transform="translate(34.696875 270.794083) scale(0.1 -0.1)">
       <defs>
        <path id="DejaVuSans-2e" d="M 684 794 
L 1344 794 
L 1344 0 
L 684 0 
L 684 794 
z
" transform="scale(0.015625)"/>
        <path id="DejaVuSans-35" d="M 691 4666 
L 3169 4666 
L 3169 4134 
L 1269 4134 
L 1269 2991 
Q 1406 3038 1543 3061 
Q 1681 3084 1819 3084 
Q 2600 3084 3056 2656 
Q 3513 2228 3513 1497 
Q 3513 744 3044 326 
Q 2575 -91 1722 -91 
Q 1428 -91 1123 -41 
Q 819 9 494 109 
L 494 744 
Q 775 591 1075 516 
Q 1375 441 1709 441 
Q 2250 441 2565 725 
Q 2881 1009 2881 1497 
Q 2881 1984 2565 2268 
Q 2250 2553 1709 2553 
Q 1456 2553 1204 2497 
Q 953 2441 691 2322 
L 691 4666 
z
" transform="scale(0.015625)"/>
       </defs>
       <use xlink:href="#DejaVuSans-30"/>
       <use xlink:href="#DejaVuSans-2e" x="63.623047"/>
       <use xlink:href="#DejaVuSans-35" x="95.410156"/>
      </g>
     </g>
    </g>
    <g id="ytick_2">
     <g id="line2d_42">
      <path d="M 57.6 225.492681 
L 414.72 225.492681 
" clip-path="url(#p5bda17ce3b)" style="fill: none; stroke: #808080; stroke-width: 0.8; stroke-linecap: square"/>
     </g>
     <g id="line2d_43">
      <g>
       <use xlink:href="#m0eb1e447f0" x="57.6" y="225.492681" style="stroke: #000000; stroke-width: 0.8"/>
      </g>
     </g>
     <g id="text_11">
      <!-- 1.0 -->
      <g transform="translate(34.696875 229.2919) scale(0.1 -0.1)">
       <use xlink:href="#DejaVuSans-31"/>
       <use xlink:href="#DejaVuSans-2e" x="63.623047"/>
       <use xlink:href="#DejaVuSans-30" x="95.410156"/>
      </g>
     </g>
    </g>
    <g id="ytick_3">
     <g id="line2d_44">
      <path d="M 57.6 183.990498 
L 414.72 183.990498 
" clip-path="url(#p5bda17ce3b)" style="fill: none; stroke: #808080; stroke-width: 0.8; stroke-linecap: square"/>
     </g>
     <g id="line2d_45">
      <g>
       <use xlink:href="#m0eb1e447f0" x="57.6" y="183.990498" style="stroke: #000000; stroke-width: 0.8"/>
      </g>
     </g>
     <g id="text_12">
      <!-- 1.5 -->
      <g transform="translate(34.696875 187.789717) scale(0.1 -0.1)">
       <use xlink:href="#DejaVuSans-31"/>
       <use xlink:href="#DejaVuSans-2e" x="63.623047"/>
       <use xlink:href="#DejaVuSans-35" x="95.410156"/>
      </g>
     </g>
    </g>
    <g id="ytick_4">
     <g id="line2d_46">
      <path d="M 57.6 142.488314 
L 414.72 142.488314 
" clip-path="url(#p5bda17ce3b)" style="fill: none; stroke: #808080; stroke-width: 0.8; stroke-linecap: square"/>
     </g>
     <g id="line2d_47">
      <g>
       <use xlink:href="#m0eb1e447f0" x="57.6" y="142.488314" style="stroke: #000000; stroke-width: 0.8"/>
      </g>
     </g>
     <g id="text_13">
      <!-- 2.0 -->
      <g transform="translate(34.696875 146.287533) scale(0.1 -0.1)">
       <use xlink:href="#DejaVuSans-32"/>
       <use xlink:href="#DejaVuSans-2e" x="63.623047"/>
       <use xlink:href="#DejaVuSans-30" x="95.410156"/>
      </g>
     </g>
    </g>
    <g id="ytick_5">
     <g id="line2d_48">
      <path d="M 57.6 100.986131 
L 414.72 100.986131 
" clip-path="url(#p5bda17ce3b)" style="fill: none; stroke: #808080; stroke-width: 0.8; stroke-linecap: square"/>
     </g>
     <g id="line2d_49">
      <g>
       <use xlink:href="#m0eb1e447f0" x="57.6" y="100.986131" style="stroke: #000000; stroke-width: 0.8"/>
      </g>
     </g>
     <g id="text_14">
      <!-- 2.5 -->
      <g transform="translate(34.696875 104.78535) scale(0.1 -0.1)">
       <use xlink:href="#DejaVuSans-32"/>
       <use xlink:href="#DejaVuSans-2e" x="63.623047"/>
       <use xlink:href="#DejaVuSans-35" x="95.410156"/>
      </g>
     </g>
    </g>
    <g id="ytick_6">
     <g id="line2d_50">
      <path d="M 57.6 59.483948 
L 414.72 59.483948 
" clip-path="url(#p5bda17ce3b)" style="fill: none; stroke: #808080; stroke-width: 0.8; stroke-linecap: square"/>
     </g>
     <g id="line2d_51">
      <g>
       <use xlink:href="#m0eb1e447f0" x="57.6" y="59.483948" style="stroke: #000000; stroke-width: 0.8"/>
      </g>
     </g>
     <g id="text_15">
      <!-- 3.0 -->
      <g transform="translate(34.696875 63.283166) scale(0.1 -0.1)">
       <defs>
        <path id="DejaVuSans-33" d="M 2597 2516 
Q 3050 2419 3304 2112 
Q 3559 1806 3559 1356 
Q 3559 666 3084 287 
Q 2609 -91 1734 -91 
Q 1441 -91 1130 -33 
Q 819 25 488 141 
L 488 750 
Q 750 597 1062 519 
Q 1375 441 1716 441 
Q 2309 441 2620 675 
Q 2931 909 2931 1356 
Q 2931 1769 2642 2001 
Q 2353 2234 1838 2234 
L 1294 2234 
L 1294 2753 
L 1863 2753 
Q 2328 2753 2575 2939 
Q 2822 3125 2822 3475 
Q 2822 3834 2567 4026 
Q 2313 4219 1838 4219 
Q 1578 4219 1281 4162 
Q 984 4106 628 3988 
L 628 4550 
Q 988 4650 1302 4700 
Q 1616 4750 1894 4750 
Q 2613 4750 3031 4423 
Q 3450 4097 3450 3541 
Q 3450 3153 3228 2886 
Q 3006 2619 2597 2516 
z
" transform="scale(0.015625)"/>
       </defs>
       <use xlink:href="#DejaVuSans-33"/>
       <use xlink:href="#DejaVuSans-2e" x="63.623047"/>
       <use xlink:href="#DejaVuSans-30" x="95.410156"/>
      </g>
     </g>
    </g>
    <g id="ytick_7">
     <g id="line2d_52">
      <defs>
       <path id="m3fc52c3605" d="M 0 0 
L -2 0 
" style="stroke: #000000; stroke-width: 0.6"/>
      </defs>
      <g>
       <use xlink:href="#m3fc52c3605" x="57.6" y="300.196611" style="stroke: #000000; stroke-width: 0.6"/>
      </g>
     </g>
    </g>
    <g id="ytick_8">
     <g id="line2d_53">
      <g>
       <use xlink:href="#m3fc52c3605" x="57.6" y="291.896175" style="stroke: #000000; stroke-width: 0.6"/>
      </g>
     </g>
    </g>
    <g id="ytick_9">
     <g id="line2d_54">
      <g>
       <use xlink:href="#m3fc52c3605" x="57.6" y="283.595738" style="stroke: #000000; stroke-width: 0.6"/>
      </g>
     </g>
    </g>
    <g id="ytick_10">
     <g id="line2d_55">
      <g>
       <use xlink:href="#m3fc52c3605" x="57.6" y="275.295301" style="stroke: #000000; stroke-width: 0.6"/>
      </g>
     </g>
    </g>
    <g id="ytick_11">
     <g id="line2d_56">
      <g>
       <use xlink:href="#m3fc52c3605" x="57.6" y="258.694428" style="stroke: #000000; stroke-width: 0.6"/>
      </g>
     </g>
    </g>
    <g id="ytick_12">
     <g id="line2d_57">
      <g>
       <use xlink:href="#m3fc52c3605" x="57.6" y="250.393991" style="stroke: #000000; stroke-width: 0.6"/>
      </g>
     </g>
    </g>
    <g id="ytick_13">
     <g id="line2d_58">
      <g>
       <use xlink:href="#m3fc52c3605" x="57.6" y="242.093555" style="stroke: #000000; stroke-width: 0.6"/>
      </g>
     </g>
    </g>
    <g id="ytick_14">
     <g id="line2d_59">
      <g>
       <use xlink:href="#m3fc52c3605" x="57.6" y="233.793118" style="stroke: #000000; stroke-width: 0.6"/>
      </g>
     </g>
    </g>
    <g id="ytick_15">
     <g id="line2d_60">
      <g>
       <use xlink:href="#m3fc52c3605" x="57.6" y="217.192245" style="stroke: #000000; stroke-width: 0.6"/>
      </g>
     </g>
    </g>
    <g id="ytick_16">
     <g id="line2d_61">
      <g>
       <use xlink:href="#m3fc52c3605" x="57.6" y="208.891808" style="stroke: #000000; stroke-width: 0.6"/>
      </g>
     </g>
    </g>
    <g id="ytick_17">
     <g id="line2d_62">
      <g>
       <use xlink:href="#m3fc52c3605" x="57.6" y="200.591371" style="stroke: #000000; stroke-width: 0.6"/>
      </g>
     </g>
    </g>
    <g id="ytick_18">
     <g id="line2d_63">
      <g>
       <use xlink:href="#m3fc52c3605" x="57.6" y="192.290934" style="stroke: #000000; stroke-width: 0.6"/>
      </g>
     </g>
    </g>
    <g id="ytick_19">
     <g id="line2d_64">
      <g>
       <use xlink:href="#m3fc52c3605" x="57.6" y="175.690061" style="stroke: #000000; stroke-width: 0.6"/>
      </g>
     </g>
    </g>
    <g id="ytick_20">
     <g id="line2d_65">
      <g>
       <use xlink:href="#m3fc52c3605" x="57.6" y="167.389624" style="stroke: #000000; stroke-width: 0.6"/>
      </g>
     </g>
    </g>
    <g id="ytick_21">
     <g id="line2d_66">
      <g>
       <use xlink:href="#m3fc52c3605" x="57.6" y="159.089188" style="stroke: #000000; stroke-width: 0.6"/>
      </g>
     </g>
    </g>
    <g id="ytick_22">
     <g id="line2d_67">
      <g>
       <use xlink:href="#m3fc52c3605" x="57.6" y="150.788751" style="stroke: #000000; stroke-width: 0.6"/>
      </g>
     </g>
    </g>
    <g id="ytick_23">
     <g id="line2d_68">
      <g>
       <use xlink:href="#m3fc52c3605" x="57.6" y="134.187878" style="stroke: #000000; stroke-width: 0.6"/>
      </g>
     </g>
    </g>
    <g id="ytick_24">
     <g id="line2d_69">
      <g>
       <use xlink:href="#m3fc52c3605" x="57.6" y="125.887441" style="stroke: #000000; stroke-width: 0.6"/>
      </g>
     </g>
    </g>
    <g id="ytick_25">
     <g id="line2d_70">
      <g>
       <use xlink:href="#m3fc52c3605" x="57.6" y="117.587004" style="stroke: #000000; stroke-width: 0.6"/>
      </g>
     </g>
    </g>
    <g id="ytick_26">
     <g id="line2d_71">
      <g>
       <use xlink:href="#m3fc52c3605" x="57.6" y="109.286568" style="stroke: #000000; stroke-width: 0.6"/>
      </g>
     </g>
    </g>
    <g id="ytick_27">
     <g id="line2d_72">
      <g>
       <use xlink:href="#m3fc52c3605" x="57.6" y="92.685694" style="stroke: #000000; stroke-width: 0.6"/>
      </g>
     </g>
    </g>
    <g id="ytick_28">
     <g id="line2d_73">
      <g>
       <use xlink:href="#m3fc52c3605" x="57.6" y="84.385258" style="stroke: #000000; stroke-width: 0.6"/>
      </g>
     </g>
    </g>
    <g id="ytick_29">
     <g id="line2d_74">
      <g>
       <use xlink:href="#m3fc52c3605" x="57.6" y="76.084821" style="stroke: #000000; stroke-width: 0.6"/>
      </g>
     </g>
    </g>
    <g id="ytick_30">
     <g id="line2d_75">
      <g>
       <use xlink:href="#m3fc52c3605" x="57.6" y="67.784384" style="stroke: #000000; stroke-width: 0.6"/>
      </g>
     </g>
    </g>
    <g id="ytick_31">
     <g id="line2d_76">
      <g>
       <use xlink:href="#m3fc52c3605" x="57.6" y="51.183511" style="stroke: #000000; stroke-width: 0.6"/>
      </g>
     </g>
    </g>
    <g id="ytick_32">
     <g id="line2d_77">
      <g>
       <use xlink:href="#m3fc52c3605" x="57.6" y="42.883074" style="stroke: #000000; stroke-width: 0.6"/>
      </g>
     </g>
    </g>
    <g id="text_16">
     <!-- Напряжение, В -->
     <g transform="translate(28.617187 214.587375) rotate(-90) scale(0.1 -0.1)">
      <defs>
       <path id="DejaVuSans-41d" d="M 628 4666 
L 1259 4666 
L 1259 2753 
L 3553 2753 
L 3553 4666 
L 4184 4666 
L 4184 0 
L 3553 0 
L 3553 2222 
L 1259 2222 
L 1259 0 
L 628 0 
L 628 4666 
z
" transform="scale(0.015625)"/>
       <path id="DejaVuSans-430" d="M 2194 1759 
Q 1497 1759 1228 1600 
Q 959 1441 959 1056 
Q 959 750 1161 570 
Q 1363 391 1709 391 
Q 2188 391 2477 730 
Q 2766 1069 2766 1631 
L 2766 1759 
L 2194 1759 
z
M 3341 1997 
L 3341 0 
L 2766 0 
L 2766 531 
Q 2569 213 2275 61 
Q 1981 -91 1556 -91 
Q 1019 -91 701 211 
Q 384 513 384 1019 
Q 384 1609 779 1909 
Q 1175 2209 1959 2209 
L 2766 2209 
L 2766 2266 
Q 2766 2663 2505 2880 
Q 2244 3097 1772 3097 
Q 1472 3097 1187 3025 
Q 903 2953 641 2809 
L 641 3341 
Q 956 3463 1253 3523 
Q 1550 3584 1831 3584 
Q 2591 3584 2966 3190 
Q 3341 2797 3341 1997 
z
" transform="scale(0.015625)"/>
       <path id="DejaVuSans-43f" d="M 3603 3500 
L 3603 0 
L 3025 0 
L 3025 3041 
L 1159 3041 
L 1159 0 
L 581 0 
L 581 3500 
L 3603 3500 
z
" transform="scale(0.015625)"/>
       <path id="DejaVuSans-436" d="M 2597 3500 
L 3169 3500 
L 3169 1856 
L 4697 3500 
L 5366 3500 
L 4109 2153 
L 5547 0 
L 4931 0 
L 3753 1769 
L 3169 1141 
L 3169 0 
L 2597 0 
L 2597 1141 
L 2013 1769 
L 834 0 
L 219 0 
L 1656 2153 
L 400 3500 
L 1069 3500 
L 2597 1856 
L 2597 3500 
z
" transform="scale(0.015625)"/>
       <path id="DejaVuSans-43d" d="M 581 3500 
L 1159 3500 
L 1159 2072 
L 3025 2072 
L 3025 3500 
L 3603 3500 
L 3603 0 
L 3025 0 
L 3025 1613 
L 1159 1613 
L 1159 0 
L 581 0 
L 581 3500 
z
" transform="scale(0.015625)"/>
       <path id="DejaVuSans-438" d="M 3578 3500 
L 3578 0 
L 3006 0 
L 3006 2809 
L 1319 0 
L 581 0 
L 581 3500 
L 1153 3500 
L 1153 697 
L 2838 3500 
L 3578 3500 
z
" transform="scale(0.015625)"/>
      </defs>
      <use xlink:href="#DejaVuSans-41d"/>
      <use xlink:href="#DejaVuSans-430" x="75.195312"/>
      <use xlink:href="#DejaVuSans-43f" x="136.474609"/>
      <use xlink:href="#DejaVuSans-440" x="201.855469"/>
      <use xlink:href="#DejaVuSans-44f" x="265.332031"/>
      <use xlink:href="#DejaVuSans-436" x="325.488281"/>
      <use xlink:href="#DejaVuSans-435" x="415.576172"/>
      <use xlink:href="#DejaVuSans-43d" x="477.099609"/>
      <use xlink:href="#DejaVuSans-438" x="542.480469"/>
      <use xlink:href="#DejaVuSans-435" x="607.470703"/>
      <use xlink:href="#DejaVuSans-2c" x="668.994141"/>
      <use xlink:href="#DejaVuSans-20" x="700.78125"/>
      <use xlink:href="#DejaVuSans-412" x="732.568359"/>
     </g>
    </g>
   </g>
   <g id="line2d_78">
    <path d="M 57.6 307.584 
L 57.946422 303.931808 
L 58.985689 298.45352 
L 59.332111 294.801328 
L 60.024956 291.149135 
L 60.371378 287.496943 
L 60.7178 287.496943 
L 61.064223 283.844751 
L 61.410645 283.844751 
L 61.757067 280.192559 
L 62.10349 280.192559 
L 62.449912 274.714271 
L 66.953401 250.975022 
L 67.299824 250.975022 
L 67.646246 247.32283 
L 69.031935 240.018445 
L 69.378357 240.018445 
L 69.72478 236.366253 
L 70.071202 236.366253 
L 72.84258 221.757485 
L 73.189002 221.757485 
L 74.574691 214.4531 
L 74.921114 214.4531 
L 76.306803 207.148716 
L 76.653225 207.148716 
L 77.34607 203.496524 
L 77.692492 203.496524 
L 78.385336 199.844332 
L 78.731759 199.844332 
L 79.424603 196.19214 
L 79.771025 196.19214 
L 80.46387 192.539948 
L 81.156715 192.539948 
L 81.503137 188.887755 
L 81.849559 188.887755 
L 82.195981 187.061659 
L 82.542404 187.061659 
L 83.235248 183.409467 
L 83.581671 183.409467 
L 83.928093 181.583371 
L 84.274515 181.583371 
L 84.96736 177.931179 
L 85.660204 177.931179 
L 86.353049 174.278987 
L 87.045893 174.278987 
L 87.738738 170.626795 
L 88.08516 170.626795 
L 88.431582 168.800699 
L 88.778005 168.800699 
L 89.124427 166.974603 
L 89.470849 166.974603 
L 89.817271 165.148507 
L 90.163694 165.148507 
L 90.510116 163.32241 
L 91.549383 163.32241 
L 91.895805 159.670218 
L 92.58865 159.670218 
L 92.935072 157.844122 
L 93.281494 157.844122 
L 93.627916 156.018026 
L 94.320761 156.018026 
L 94.667183 154.19193 
L 95.013606 154.19193 
L 95.360028 152.365834 
L 95.70645 152.365834 
L 96.052872 150.539738 
L 97.092139 150.539738 
L 97.784984 146.887546 
L 98.477828 146.887546 
L 98.824251 145.06145 
L 99.517095 145.06145 
L 99.863517 143.235354 
L 100.20994 143.235354 
L 100.556362 141.409258 
L 101.595629 141.409258 
L 101.942051 139.583162 
L 102.288473 139.583162 
L 102.634896 137.757066 
L 103.32774 137.757066 
L 103.674162 135.930969 
L 104.713429 135.930969 
L 105.406274 132.278777 
L 107.484807 132.278777 
L 108.177652 128.626585 
L 109.563341 128.626585 
L 109.909763 126.800489 
L 110.94903 126.800489 
L 111.295452 124.974393 
L 111.988297 124.974393 
L 112.334719 123.148297 
L 113.027564 123.148297 
L 113.373986 121.322201 
L 114.759675 121.322201 
L 115.106097 119.496105 
L 116.491786 119.496105 
L 116.838209 117.670009 
L 118.223898 117.670009 
L 118.57032 115.843913 
L 119.956009 115.843913 
L 120.302431 114.017817 
L 120.995276 114.017817 
L 121.341698 112.191721 
L 121.688121 114.017817 
L 122.034543 112.191721 
L 123.07381 112.191721 
L 123.420232 110.365624 
L 125.845188 110.365624 
L 126.19161 108.539528 
L 127.923721 108.539528 
L 128.270144 106.713432 
L 130.002255 106.713432 
L 130.348677 104.887336 
L 131.734367 104.887336 
L 132.080789 103.06124 
L 135.891434 103.06124 
L 136.237856 101.235144 
L 139.009234 101.235144 
L 139.355657 99.409048 
L 139.702079 101.235144 
L 140.048501 99.409048 
L 141.780612 99.409048 
L 142.127035 97.582952 
L 142.473457 99.409048 
L 142.819879 97.582952 
L 145.93768 97.582952 
L 146.284102 95.756856 
L 149.401902 95.756856 
L 149.748325 93.93076 
L 152.866125 93.93076 
L 153.212547 92.104664 
L 153.55897 93.93076 
L 153.905392 93.93076 
L 154.251814 92.104664 
L 157.369615 92.104664 
L 157.716037 90.278568 
L 158.062459 92.104664 
L 158.408882 92.104664 
L 158.755304 90.278568 
L 159.101726 92.104664 
L 159.448148 92.104664 
L 159.794571 90.278568 
L 162.565949 90.278568 
L 162.912371 88.452472 
L 163.258793 90.278568 
L 163.605216 90.278568 
L 163.951638 88.452472 
L 164.29806 88.452472 
L 164.644482 90.278568 
L 165.683749 90.278568 
L 166.030172 88.452472 
L 172.612195 88.452472 
L 172.958617 86.626376 
L 173.305039 88.452472 
L 173.651462 86.626376 
L 181.272752 86.626376 
L 181.619174 84.800279 
L 181.965596 84.800279 
L 182.312018 86.626376 
L 182.658441 86.626376 
L 183.004863 84.800279 
L 183.351285 84.800279 
L 183.697708 86.626376 
L 184.04413 84.800279 
L 189.933308 84.800279 
L 190.279731 82.974183 
L 190.626153 86.626376 
L 190.972575 88.452472 
L 191.318998 88.452472 
L 191.66542 92.104664 
L 192.358264 95.756856 
L 192.704687 99.409048 
L 193.051109 99.409048 
L 193.397531 103.06124 
L 193.743953 103.06124 
L 194.090376 106.713432 
L 194.78322 110.365624 
L 195.129643 110.365624 
L 195.476065 114.017817 
L 195.822487 114.017817 
L 199.28671 132.278777 
L 199.633132 132.278777 
L 201.365243 141.409258 
L 201.711666 141.409258 
L 202.058088 145.06145 
L 202.40451 145.06145 
L 202.750933 146.887546 
L 203.097355 146.887546 
L 204.829466 156.018026 
L 205.175888 156.018026 
L 206.561578 163.32241 
L 206.908 163.32241 
L 207.600844 166.974603 
L 207.947267 166.974603 
L 208.293689 168.800699 
L 208.640111 168.800699 
L 209.679378 174.278987 
L 210.0258 174.278987 
L 210.372223 176.105083 
L 210.718645 176.105083 
L 211.411489 179.757275 
L 211.757912 179.757275 
L 212.450756 183.409467 
L 212.797178 183.409467 
L 213.143601 185.235563 
L 213.490023 185.235563 
L 213.836445 187.061659 
L 214.182868 187.061659 
L 214.52929 188.887755 
L 214.875712 188.887755 
L 215.222134 190.713852 
L 215.568557 190.713852 
L 215.914979 192.539948 
L 216.261401 192.539948 
L 216.607823 194.366044 
L 216.954246 194.366044 
L 217.64709 198.018236 
L 218.339935 198.018236 
L 218.686357 199.844332 
L 219.032779 199.844332 
L 219.379202 201.670428 
L 219.725624 201.670428 
L 220.418468 205.32262 
L 221.111313 205.32262 
L 221.457735 207.148716 
L 221.804158 207.148716 
L 222.15058 208.974812 
L 222.497002 208.974812 
L 222.843424 210.800908 
L 223.189847 210.800908 
L 223.536269 212.627004 
L 224.229113 212.627004 
L 224.575536 214.4531 
L 224.921958 214.4531 
L 225.26838 216.279197 
L 225.614803 216.279197 
L 225.961225 218.105293 
L 226.307647 218.105293 
L 226.654069 219.931389 
L 227.693336 219.931389 
L 228.386181 223.583581 
L 229.079025 223.583581 
L 229.425448 225.409677 
L 229.77187 225.409677 
L 230.118292 227.235773 
L 231.157559 227.235773 
L 231.503981 229.061869 
L 231.850404 229.061869 
L 232.196826 230.887965 
L 232.88967 230.887965 
L 233.236093 232.714061 
L 233.582515 232.714061 
L 233.928937 234.540157 
L 234.621782 234.540157 
L 234.968204 236.366253 
L 236.007471 236.366253 
L 236.353893 238.192349 
L 237.046738 238.192349 
L 237.39316 240.018445 
L 238.086004 240.018445 
L 238.432427 241.844541 
L 239.471694 241.844541 
L 239.818116 243.670638 
L 240.164538 243.670638 
L 240.51096 245.496734 
L 241.550227 245.496734 
L 241.896649 247.32283 
L 242.589494 247.32283 
L 242.935916 249.148926 
L 243.282339 249.148926 
L 243.628761 250.975022 
L 245.707294 250.975022 
L 246.053717 252.801118 
L 246.746561 252.801118 
L 247.092984 254.627214 
L 247.785828 254.627214 
L 248.13225 256.45331 
L 249.517939 256.45331 
L 249.864362 258.279406 
L 250.903629 258.279406 
L 251.250051 260.105502 
L 251.942895 260.105502 
L 252.289318 261.931598 
L 253.675007 261.931598 
L 254.021429 263.757694 
L 255.407118 263.757694 
L 255.75354 265.58379 
L 256.099963 263.757694 
L 256.446385 265.58379 
L 257.139229 265.58379 
L 257.485652 267.409886 
L 258.871341 267.409886 
L 259.217763 269.235983 
L 260.603452 269.235983 
L 260.949874 271.062079 
L 262.335564 271.062079 
L 262.681986 272.888175 
L 264.760519 272.888175 
L 265.106942 274.714271 
L 266.492631 274.714271 
L 266.839053 276.540367 
L 268.224742 276.540367 
L 268.571164 278.366463 
L 268.917587 276.540367 
L 269.264009 278.366463 
L 270.303276 278.366463 
L 270.649698 280.192559 
L 274.113921 280.192559 
L 274.460343 282.018655 
L 276.885299 282.018655 
L 277.231721 283.844751 
L 278.963833 283.844751 
L 279.310255 285.670847 
L 282.428055 285.670847 
L 282.774478 287.496943 
L 286.2387 287.496943 
L 286.585123 289.323039 
L 289.356501 289.323039 
L 289.702923 291.149135 
L 290.049345 289.323039 
L 290.395768 291.149135 
L 294.206413 291.149135 
L 294.552835 292.975231 
L 297.670635 292.975231 
L 298.017058 294.801328 
L 303.559814 294.801328 
L 303.906236 296.627424 
L 309.448993 296.627424 
L 309.795415 298.45352 
L 310.141837 296.627424 
L 310.48826 298.45352 
L 316.031016 298.45352 
L 316.377438 300.279616 
L 323.652306 300.279616 
L 323.998728 302.105712 
L 324.345151 300.279616 
L 325.384417 300.279616 
L 325.73084 302.105712 
L 326.077262 302.105712 
L 326.423684 300.279616 
L 326.770106 302.105712 
L 333.698552 302.105712 
L 334.044974 303.931808 
L 334.391396 302.105712 
L 337.162775 302.105712 
L 337.509197 303.931808 
L 338.202041 303.931808 
L 338.548464 302.105712 
L 338.894886 303.931808 
L 348.248287 303.931808 
L 348.59471 305.757904 
L 348.941132 303.931808 
L 349.633976 303.931808 
L 349.980399 305.757904 
L 367.994357 305.757904 
L 368.340779 307.584 
L 368.340779 307.584 
" clip-path="url(#p5bda17ce3b)" style="fill: none; stroke: #ff0000; stroke-width: 0.5; stroke-linecap: square"/>
    <defs>
     <path id="mb07d4ebbec" d="M 0 0.5 
C 0.132602 0.5 0.25979 0.447317 0.353553 0.353553 
C 0.447317 0.25979 0.5 0.132602 0.5 0 
C 0.5 -0.132602 0.447317 -0.25979 0.353553 -0.353553 
C 0.25979 -0.447317 0.132602 -0.5 0 -0.5 
C -0.132602 -0.5 -0.25979 -0.447317 -0.353553 -0.353553 
C -0.447317 -0.25979 -0.5 -0.132602 -0.5 0 
C -0.5 0.132602 -0.447317 0.25979 -0.353553 0.353553 
C -0.25979 0.447317 -0.132602 0.5 0 0.5 
z
" style="stroke: #ff0000; stroke-width: 2"/>
    </defs>
    <g clip-path="url(#p5bda17ce3b)">
     <use xlink:href="#mb07d4ebbec" x="57.6" y="307.584" style="fill: #ffffff; stroke: #ff0000; stroke-width: 2"/>
     <use xlink:href="#mb07d4ebbec" x="66.260557" y="254.627214" style="fill: #ffffff; stroke: #ff0000; stroke-width: 2"/>
     <use xlink:href="#mb07d4ebbec" x="74.921114" y="214.4531" style="fill: #ffffff; stroke: #ff0000; stroke-width: 2"/>
     <use xlink:href="#mb07d4ebbec" x="83.581671" y="183.409467" style="fill: #ffffff; stroke: #ff0000; stroke-width: 2"/>
     <use xlink:href="#mb07d4ebbec" x="92.242227" y="159.670218" style="fill: #ffffff; stroke: #ff0000; stroke-width: 2"/>
     <use xlink:href="#mb07d4ebbec" x="100.902784" y="141.409258" style="fill: #ffffff; stroke: #ff0000; stroke-width: 2"/>
     <use xlink:href="#mb07d4ebbec" x="109.563341" y="128.626585" style="fill: #ffffff; stroke: #ff0000; stroke-width: 2"/>
     <use xlink:href="#mb07d4ebbec" x="118.223898" y="117.670009" style="fill: #ffffff; stroke: #ff0000; stroke-width: 2"/>
     <use xlink:href="#mb07d4ebbec" x="126.884455" y="108.539528" style="fill: #ffffff; stroke: #ff0000; stroke-width: 2"/>
     <use xlink:href="#mb07d4ebbec" x="135.545012" y="103.06124" style="fill: #ffffff; stroke: #ff0000; stroke-width: 2"/>
     <use xlink:href="#mb07d4ebbec" x="144.205568" y="97.582952" style="fill: #ffffff; stroke: #ff0000; stroke-width: 2"/>
     <use xlink:href="#mb07d4ebbec" x="152.866125" y="93.93076" style="fill: #ffffff; stroke: #ff0000; stroke-width: 2"/>
     <use xlink:href="#mb07d4ebbec" x="161.526682" y="90.278568" style="fill: #ffffff; stroke: #ff0000; stroke-width: 2"/>
     <use xlink:href="#mb07d4ebbec" x="170.187239" y="88.452472" style="fill: #ffffff; stroke: #ff0000; stroke-width: 2"/>
     <use xlink:href="#mb07d4ebbec" x="178.847796" y="86.626376" style="fill: #ffffff; stroke: #ff0000; stroke-width: 2"/>
     <use xlink:href="#mb07d4ebbec" x="187.508353" y="84.800279" style="fill: #ffffff; stroke: #ff0000; stroke-width: 2"/>
     <use xlink:href="#mb07d4ebbec" x="196.168909" y="115.843913" style="fill: #ffffff; stroke: #ff0000; stroke-width: 2"/>
     <use xlink:href="#mb07d4ebbec" x="204.829466" y="156.018026" style="fill: #ffffff; stroke: #ff0000; stroke-width: 2"/>
     <use xlink:href="#mb07d4ebbec" x="213.490023" y="185.235563" style="fill: #ffffff; stroke: #ff0000; stroke-width: 2"/>
     <use xlink:href="#mb07d4ebbec" x="222.15058" y="208.974812" style="fill: #ffffff; stroke: #ff0000; stroke-width: 2"/>
     <use xlink:href="#mb07d4ebbec" x="230.811137" y="227.235773" style="fill: #ffffff; stroke: #ff0000; stroke-width: 2"/>
     <use xlink:href="#mb07d4ebbec" x="239.471694" y="241.844541" style="fill: #ffffff; stroke: #ff0000; stroke-width: 2"/>
     <use xlink:href="#mb07d4ebbec" x="248.13225" y="256.45331" style="fill: #ffffff; stroke: #ff0000; stroke-width: 2"/>
     <use xlink:href="#mb07d4ebbec" x="256.792807" y="265.58379" style="fill: #ffffff; stroke: #ff0000; stroke-width: 2"/>
     <use xlink:href="#mb07d4ebbec" x="265.453364" y="274.714271" style="fill: #ffffff; stroke: #ff0000; stroke-width: 2"/>
     <use xlink:href="#mb07d4ebbec" x="274.113921" y="280.192559" style="fill: #ffffff; stroke: #ff0000; stroke-width: 2"/>
     <use xlink:href="#mb07d4ebbec" x="282.774478" y="287.496943" style="fill: #ffffff; stroke: #ff0000; stroke-width: 2"/>
     <use xlink:href="#mb07d4ebbec" x="291.435035" y="291.149135" style="fill: #ffffff; stroke: #ff0000; stroke-width: 2"/>
     <use xlink:href="#mb07d4ebbec" x="300.095591" y="294.801328" style="fill: #ffffff; stroke: #ff0000; stroke-width: 2"/>
     <use xlink:href="#mb07d4ebbec" x="308.756148" y="296.627424" style="fill: #ffffff; stroke: #ff0000; stroke-width: 2"/>
     <use xlink:href="#mb07d4ebbec" x="317.416705" y="300.279616" style="fill: #ffffff; stroke: #ff0000; stroke-width: 2"/>
     <use xlink:href="#mb07d4ebbec" x="326.077262" y="302.105712" style="fill: #ffffff; stroke: #ff0000; stroke-width: 2"/>
     <use xlink:href="#mb07d4ebbec" x="334.737819" y="302.105712" style="fill: #ffffff; stroke: #ff0000; stroke-width: 2"/>
     <use xlink:href="#mb07d4ebbec" x="343.398376" y="303.931808" style="fill: #ffffff; stroke: #ff0000; stroke-width: 2"/>
     <use xlink:href="#mb07d4ebbec" x="352.058932" y="305.757904" style="fill: #ffffff; stroke: #ff0000; stroke-width: 2"/>
     <use xlink:href="#mb07d4ebbec" x="360.719489" y="305.757904" style="fill: #ffffff; stroke: #ff0000; stroke-width: 2"/>
    </g>
   </g>
   <g id="patch_3">
    <path d="M 57.6 307.584 
L 57.6 41.472 
" style="fill: none; stroke: #000000; stroke-width: 0.8; stroke-linejoin: miter; stroke-linecap: square"/>
   </g>
   <g id="patch_4">
    <path d="M 414.72 307.584 
L 414.72 41.472 
" style="fill: none; stroke: #000000; stroke-width: 0.8; stroke-linejoin: miter; stroke-linecap: square"/>
   </g>
   <g id="patch_5">
    <path d="M 57.6 307.584 
L 414.72 307.584 
" style="fill: none; stroke: #000000; stroke-width: 0.8; stroke-linejoin: miter; stroke-linecap: square"/>
   </g>
   <g id="patch_6">
    <path d="M 57.6 41.472 
L 414.72 41.472 
" style="fill: none; stroke: #000000; stroke-width: 0.8; stroke-linejoin: miter; stroke-linecap: square"/>
   </g>
   <g id="text_17">
    <!-- Время заряда: 5.72 сек. -->
    <g transform="translate(254.711688 204.74159) scale(0.1 -0.1)">
     <defs>
      <path id="DejaVuSans-437" d="M 2206 1888 
Q 2594 1813 2809 1584 
Q 3025 1356 3025 1019 
Q 3025 478 2622 193 
Q 2219 -91 1475 -91 
Q 1225 -91 961 -47 
Q 697 -3 416 84 
L 416 619 
Q 638 503 903 445 
Q 1169 388 1459 388 
Q 1931 388 2195 563 
Q 2459 738 2459 1019 
Q 2459 1294 2225 1461 
Q 1991 1628 1563 1628 
L 1100 1628 
L 1100 2103 
L 1584 2103 
Q 1947 2103 2158 2242 
Q 2369 2381 2369 2600 
Q 2369 2800 2151 2944 
Q 1934 3088 1563 3088 
Q 1341 3088 1089 3047 
Q 838 3006 534 2916 
L 534 3438 
Q 841 3513 1106 3550 
Q 1372 3588 1609 3588 
Q 2222 3588 2576 3342 
Q 2931 3097 2931 2656 
Q 2931 2366 2743 2164 
Q 2556 1963 2206 1888 
z
" transform="scale(0.015625)"/>
      <path id="DejaVuSans-434" d="M 1384 459 
L 3053 459 
L 3053 3041 
L 1844 3041 
L 1844 2603 
Q 1844 1316 1475 628 
L 1384 459 
z
M 550 459 
Q 834 584 959 850 
Q 1266 1509 1266 2838 
L 1266 3500 
L 3631 3500 
L 3631 459 
L 4091 459 
L 4091 -884 
L 3631 -884 
L 3631 0 
L 794 0 
L 794 -884 
L 334 -884 
L 334 459 
L 550 459 
z
" transform="scale(0.015625)"/>
      <path id="DejaVuSans-3a" d="M 750 794 
L 1409 794 
L 1409 0 
L 750 0 
L 750 794 
z
M 750 3309 
L 1409 3309 
L 1409 2516 
L 750 2516 
L 750 3309 
z
" transform="scale(0.015625)"/>
      <path id="DejaVuSans-37" d="M 525 4666 
L 3525 4666 
L 3525 4397 
L 1831 0 
L 1172 0 
L 2766 4134 
L 525 4134 
L 525 4666 
z
" transform="scale(0.015625)"/>
      <path id="DejaVuSans-43a" d="M 581 3500 
L 1153 3500 
L 1153 1856 
L 2775 3500 
L 3481 3500 
L 2144 2147 
L 3653 0 
L 3009 0 
L 1769 1766 
L 1153 1141 
L 1153 0 
L 581 0 
L 581 3500 
z
" transform="scale(0.015625)"/>
     </defs>
     <use xlink:href="#DejaVuSans-412"/>
     <use xlink:href="#DejaVuSans-440" x="68.603516"/>
     <use xlink:href="#DejaVuSans-435" x="132.080078"/>
     <use xlink:href="#DejaVuSans-43c" x="193.603516"/>
     <use xlink:href="#DejaVuSans-44f" x="269.042969"/>
     <use xlink:href="#DejaVuSans-20" x="329.199219"/>
     <use xlink:href="#DejaVuSans-437" x="360.986328"/>
     <use xlink:href="#DejaVuSans-430" x="414.160156"/>
     <use xlink:href="#DejaVuSans-440" x="475.439453"/>
     <use xlink:href="#DejaVuSans-44f" x="538.916016"/>
     <use xlink:href="#DejaVuSans-434" x="599.072266"/>
     <use xlink:href="#DejaVuSans-430" x="668.212891"/>
     <use xlink:href="#DejaVuSans-3a" x="729.492188"/>
     <use xlink:href="#DejaVuSans-20" x="763.183594"/>
     <use xlink:href="#DejaVuSans-35" x="794.970703"/>
     <use xlink:href="#DejaVuSans-2e" x="858.59375"/>
     <use xlink:href="#DejaVuSans-37" x="890.380859"/>
     <use xlink:href="#DejaVuSans-32" x="954.003906"/>
     <use xlink:href="#DejaVuSans-20" x="1017.626953"/>
     <use xlink:href="#DejaVuSans-441" x="1049.414062"/>
     <use xlink:href="#DejaVuSans-435" x="1104.394531"/>
     <use xlink:href="#DejaVuSans-43a" x="1165.917969"/>
     <use xlink:href="#DejaVuSans-2e" x="1226.318359"/>
    </g>
   </g>
   <g id="text_18">
    <!-- Время разряда: 7.74 cек. -->
    <g transform="translate(254.711688 217.192245) scale(0.1 -0.1)">
     <defs>
      <path id="DejaVuSans-63" d="M 3122 3366 
L 3122 2828 
Q 2878 2963 2633 3030 
Q 2388 3097 2138 3097 
Q 1578 3097 1268 2742 
Q 959 2388 959 1747 
Q 959 1106 1268 751 
Q 1578 397 2138 397 
Q 2388 397 2633 464 
Q 2878 531 3122 666 
L 3122 134 
Q 2881 22 2623 -34 
Q 2366 -91 2075 -91 
Q 1284 -91 818 406 
Q 353 903 353 1747 
Q 353 2603 823 3093 
Q 1294 3584 2113 3584 
Q 2378 3584 2631 3529 
Q 2884 3475 3122 3366 
z
" transform="scale(0.015625)"/>
     </defs>
     <use xlink:href="#DejaVuSans-412"/>
     <use xlink:href="#DejaVuSans-440" x="68.603516"/>
     <use xlink:href="#DejaVuSans-435" x="132.080078"/>
     <use xlink:href="#DejaVuSans-43c" x="193.603516"/>
     <use xlink:href="#DejaVuSans-44f" x="269.042969"/>
     <use xlink:href="#DejaVuSans-20" x="329.199219"/>
     <use xlink:href="#DejaVuSans-440" x="360.986328"/>
     <use xlink:href="#DejaVuSans-430" x="424.462891"/>
     <use xlink:href="#DejaVuSans-437" x="485.742188"/>
     <use xlink:href="#DejaVuSans-440" x="538.916016"/>
     <use xlink:href="#DejaVuSans-44f" x="602.392578"/>
     <use xlink:href="#DejaVuSans-434" x="662.548828"/>
     <use xlink:href="#DejaVuSans-430" x="731.689453"/>
     <use xlink:href="#DejaVuSans-3a" x="792.96875"/>
     <use xlink:href="#DejaVuSans-20" x="826.660156"/>
     <use xlink:href="#DejaVuSans-37" x="858.447266"/>
     <use xlink:href="#DejaVuSans-2e" x="922.070312"/>
     <use xlink:href="#DejaVuSans-37" x="953.857422"/>
     <use xlink:href="#DejaVuSans-34" x="1017.480469"/>
     <use xlink:href="#DejaVuSans-20" x="1081.103516"/>
     <use xlink:href="#DejaVuSans-63" x="1112.890625"/>
     <use xlink:href="#DejaVuSans-435" x="1167.871094"/>
     <use xlink:href="#DejaVuSans-43a" x="1229.394531"/>
     <use xlink:href="#DejaVuSans-2e" x="1289.794922"/>
    </g>
   </g>
   <g id="text_19">
    <!-- Процесс заряда и разряда конденсатора в RC цепи -->
    <g transform="translate(72.714375 35.472) scale(0.12 -0.12)">
     <defs>
      <path id="DejaVuSans-41f" d="M 4184 4666 
L 4184 0 
L 3553 0 
L 3553 4134 
L 1259 4134 
L 1259 0 
L 628 0 
L 628 4666 
L 4184 4666 
z
" transform="scale(0.015625)"/>
      <path id="DejaVuSans-43e" d="M 1959 3097 
Q 1497 3097 1228 2736 
Q 959 2375 959 1747 
Q 959 1119 1226 758 
Q 1494 397 1959 397 
Q 2419 397 2687 759 
Q 2956 1122 2956 1747 
Q 2956 2369 2687 2733 
Q 2419 3097 1959 3097 
z
M 1959 3584 
Q 2709 3584 3137 3096 
Q 3566 2609 3566 1747 
Q 3566 888 3137 398 
Q 2709 -91 1959 -91 
Q 1206 -91 779 398 
Q 353 888 353 1747 
Q 353 2609 779 3096 
Q 1206 3584 1959 3584 
z
" transform="scale(0.015625)"/>
      <path id="DejaVuSans-446" d="M 3603 0 
L 581 0 
L 581 3500 
L 1159 3500 
L 1159 459 
L 3025 459 
L 3025 3500 
L 3603 3500 
L 3603 459 
L 4063 459 
L 4063 -884 
L 3603 -884 
L 3603 0 
z
" transform="scale(0.015625)"/>
      <path id="DejaVuSans-442" d="M 188 3500 
L 3541 3500 
L 3541 3041 
L 2147 3041 
L 2147 0 
L 1581 0 
L 1581 3041 
L 188 3041 
L 188 3500 
z
" transform="scale(0.015625)"/>
      <path id="DejaVuSans-432" d="M 1156 1613 
L 1156 459 
L 1975 459 
Q 2369 459 2575 607 
Q 2781 756 2781 1038 
Q 2781 1319 2575 1466 
Q 2369 1613 1975 1613 
L 1156 1613 
z
M 1156 3041 
L 1156 2072 
L 1913 2072 
Q 2238 2072 2444 2201 
Q 2650 2331 2650 2563 
Q 2650 2794 2444 2917 
Q 2238 3041 1913 3041 
L 1156 3041 
z
M 581 3500 
L 1950 3500 
Q 2566 3500 2897 3275 
Q 3228 3050 3228 2634 
Q 3228 2313 3059 2123 
Q 2891 1934 2559 1888 
Q 2956 1813 3175 1575 
Q 3394 1338 3394 981 
Q 3394 513 3033 256 
Q 2672 0 2003 0 
L 581 0 
L 581 3500 
z
" transform="scale(0.015625)"/>
      <path id="DejaVuSans-52" d="M 2841 2188 
Q 3044 2119 3236 1894 
Q 3428 1669 3622 1275 
L 4263 0 
L 3584 0 
L 2988 1197 
Q 2756 1666 2539 1819 
Q 2322 1972 1947 1972 
L 1259 1972 
L 1259 0 
L 628 0 
L 628 4666 
L 2053 4666 
Q 2853 4666 3247 4331 
Q 3641 3997 3641 3322 
Q 3641 2881 3436 2590 
Q 3231 2300 2841 2188 
z
M 1259 4147 
L 1259 2491 
L 2053 2491 
Q 2509 2491 2742 2702 
Q 2975 2913 2975 3322 
Q 2975 3731 2742 3939 
Q 2509 4147 2053 4147 
L 1259 4147 
z
" transform="scale(0.015625)"/>
      <path id="DejaVuSans-43" d="M 4122 4306 
L 4122 3641 
Q 3803 3938 3442 4084 
Q 3081 4231 2675 4231 
Q 1875 4231 1450 3742 
Q 1025 3253 1025 2328 
Q 1025 1406 1450 917 
Q 1875 428 2675 428 
Q 3081 428 3442 575 
Q 3803 722 4122 1019 
L 4122 359 
Q 3791 134 3420 21 
Q 3050 -91 2638 -91 
Q 1578 -91 968 557 
Q 359 1206 359 2328 
Q 359 3453 968 4101 
Q 1578 4750 2638 4750 
Q 3056 4750 3426 4639 
Q 3797 4528 4122 4306 
z
" transform="scale(0.015625)"/>
     </defs>
     <use xlink:href="#DejaVuSans-41f"/>
     <use xlink:href="#DejaVuSans-440" x="75.195312"/>
     <use xlink:href="#DejaVuSans-43e" x="138.671875"/>
     <use xlink:href="#DejaVuSans-446" x="199.853516"/>
     <use xlink:href="#DejaVuSans-435" x="267.919922"/>
     <use xlink:href="#DejaVuSans-441" x="329.443359"/>
     <use xlink:href="#DejaVuSans-441" x="384.423828"/>
     <use xlink:href="#DejaVuSans-20" x="439.404297"/>
     <use xlink:href="#DejaVuSans-437" x="471.191406"/>
     <use xlink:href="#DejaVuSans-430" x="524.365234"/>
     <use xlink:href="#DejaVuSans-440" x="585.644531"/>
     <use xlink:href="#DejaVuSans-44f" x="649.121094"/>
     <use xlink:href="#DejaVuSans-434" x="709.277344"/>
     <use xlink:href="#DejaVuSans-430" x="778.417969"/>
     <use xlink:href="#DejaVuSans-20" x="839.697266"/>
     <use xlink:href="#DejaVuSans-438" x="871.484375"/>
     <use xlink:href="#DejaVuSans-20" x="936.474609"/>
     <use xlink:href="#DejaVuSans-440" x="968.261719"/>
     <use xlink:href="#DejaVuSans-430" x="1031.738281"/>
     <use xlink:href="#DejaVuSans-437" x="1093.017578"/>
     <use xlink:href="#DejaVuSans-440" x="1146.191406"/>
     <use xlink:href="#DejaVuSans-44f" x="1209.667969"/>
     <use xlink:href="#DejaVuSans-434" x="1269.824219"/>
     <use xlink:href="#DejaVuSans-430" x="1338.964844"/>
     <use xlink:href="#DejaVuSans-20" x="1400.244141"/>
     <use xlink:href="#DejaVuSans-43a" x="1432.03125"/>
     <use xlink:href="#DejaVuSans-43e" x="1492.431641"/>
     <use xlink:href="#DejaVuSans-43d" x="1553.613281"/>
     <use xlink:href="#DejaVuSans-434" x="1618.994141"/>
     <use xlink:href="#DejaVuSans-435" x="1688.134766"/>
     <use xlink:href="#DejaVuSans-43d" x="1749.658203"/>
     <use xlink:href="#DejaVuSans-441" x="1815.039062"/>
     <use xlink:href="#DejaVuSans-430" x="1870.019531"/>
     <use xlink:href="#DejaVuSans-442" x="1931.298828"/>
     <use xlink:href="#DejaVuSans-43e" x="1989.550781"/>
     <use xlink:href="#DejaVuSans-440" x="2050.732422"/>
     <use xlink:href="#DejaVuSans-430" x="2114.208984"/>
     <use xlink:href="#DejaVuSans-20" x="2175.488281"/>
     <use xlink:href="#DejaVuSans-432" x="2207.275391"/>
     <use xlink:href="#DejaVuSans-20" x="2266.210938"/>
     <use xlink:href="#DejaVuSans-52" x="2297.998047"/>
     <use xlink:href="#DejaVuSans-43" x="2362.480469"/>
     <use xlink:href="#DejaVuSans-20" x="2432.304688"/>
     <use xlink:href="#DejaVuSans-446" x="2464.091797"/>
     <use xlink:href="#DejaVuSans-435" x="2532.158203"/>
     <use xlink:href="#DejaVuSans-43f" x="2593.681641"/>
     <use xlink:href="#DejaVuSans-438" x="2659.0625"/>
    </g>
   </g>
   <g id="legend_1">
    <g id="patch_7">
     <path d="M 357.155938 64.150125 
L 407.72 64.150125 
Q 409.72 64.150125 409.72 62.150125 
L 409.72 48.472 
Q 409.72 46.472 407.72 46.472 
L 357.155938 46.472 
Q 355.155938 46.472 355.155938 48.472 
L 355.155938 62.150125 
Q 355.155938 64.150125 357.155938 64.150125 
z
" style="fill: #ffffff; opacity: 0.8; stroke: #cccccc; stroke-linejoin: miter"/>
    </g>
    <g id="line2d_79">
     <path d="M 359.155938 54.570438 
L 369.155938 54.570438 
L 379.155938 54.570438 
" style="fill: none; stroke: #ff0000; stroke-width: 0.5; stroke-linecap: square"/>
     <g>
      <use xlink:href="#mb07d4ebbec" x="369.155938" y="54.570438" style="fill: #ffffff; stroke: #ff0000; stroke-width: 2"/>
     </g>
    </g>
    <g id="text_20">
     <!-- V(t) -->
     <g transform="translate(387.155938 58.070438) scale(0.1 -0.1)">
      <defs>
       <path id="DejaVuSans-56" d="M 1831 0 
L 50 4666 
L 709 4666 
L 2188 738 
L 3669 4666 
L 4325 4666 
L 2547 0 
L 1831 0 
z
" transform="scale(0.015625)"/>
       <path id="DejaVuSans-28" d="M 1984 4856 
Q 1566 4138 1362 3434 
Q 1159 2731 1159 2009 
Q 1159 1288 1364 580 
Q 1569 -128 1984 -844 
L 1484 -844 
Q 1016 -109 783 600 
Q 550 1309 550 2009 
Q 550 2706 781 3412 
Q 1013 4119 1484 4856 
L 1984 4856 
z
" transform="scale(0.015625)"/>
       <path id="DejaVuSans-74" d="M 1172 4494 
L 1172 3500 
L 2356 3500 
L 2356 3053 
L 1172 3053 
L 1172 1153 
Q 1172 725 1289 603 
Q 1406 481 1766 481 
L 2356 481 
L 2356 0 
L 1766 0 
Q 1100 0 847 248 
Q 594 497 594 1153 
L 594 3053 
L 172 3053 
L 172 3500 
L 594 3500 
L 594 4494 
L 1172 4494 
z
" transform="scale(0.015625)"/>
       <path id="DejaVuSans-29" d="M 513 4856 
L 1013 4856 
Q 1481 4119 1714 3412 
Q 1947 2706 1947 2009 
Q 1947 1309 1714 600 
Q 1481 -109 1013 -844 
L 513 -844 
Q 928 -128 1133 580 
Q 1338 1288 1338 2009 
Q 1338 2731 1133 3434 
Q 928 4138 513 4856 
z
" transform="scale(0.015625)"/>
      </defs>
      <use xlink:href="#DejaVuSans-56"/>
      <use xlink:href="#DejaVuSans-28" x="68.408203"/>
      <use xlink:href="#DejaVuSans-74" x="107.421875"/>
      <use xlink:href="#DejaVuSans-29" x="146.630859"/>
     </g>
    </g>
   </g>
  </g>
 </g>
 <defs>
  <clipPath id="p5bda17ce3b">
   <rect x="57.6" y="41.472" width="357.12" height="266.112"/>
  </clipPath>
 </defs>
</svg>
